<svg width="22" height="22" viewBox="0 0 22 22" fill="none" xmlns="http://www.w3.org/2000/svg">
<path fill-rule="evenodd" clip-rule="evenodd" d="M10.5961 0.0513219C10.5138 -0.00157853 10.412 -0.014352 10.3192 0.0165835L9.43056 0.312789C9.35422 0.338235 9.29013 0.391248 9.25081 0.461456L8.87382 1.13465C8.85826 1.16244 8.84689 1.19237 8.84009 1.22348L8.65159 2.08517C8.64298 2.12455 8.64181 2.16519 8.64814 2.20499L8.83664 3.38982C8.84212 3.42426 8.85314 3.45759 8.86927 3.48852L9.21038 4.14232L7.3547 5.18455C7.30528 5.21231 7.26403 5.25258 7.23509 5.30132C7.1073 5.51654 6.51505 6.17948 5.31595 6.67566C4.48766 7.0184 3.92204 7.46964 3.50644 7.87813C3.32293 8.05851 3.16786 8.2315 3.03756 8.37686L2.9915 8.4282C2.8453 8.59089 2.7443 8.69819 2.65815 8.76407C2.52289 8.8675 2.23665 8.99049 1.89148 9.10525C1.55981 9.21552 1.21765 9.30432 1.00643 9.35174C0.893576 9.37707 0.802872 9.46078 0.768591 9.57125L0.526241 10.3522C0.498994 10.4399 0.510431 10.5352 0.557691 10.614C0.60495 10.6929 0.683557 10.7479 0.773831 10.7652L2.17408 11.0345C2.27654 11.0542 2.38221 11.0232 2.45781 10.9513L3.51547 9.94526L4.29055 9.64523C4.30978 9.63779 4.32826 9.62852 4.34573 9.61755L5.47295 8.90976L6.97366 8.38319C6.98272 8.38001 6.99164 8.37643 7.00039 8.37245L8.18198 7.83536L8.71017 9.05426L8.32795 10.838C8.3129 10.9082 8.32193 10.9787 8.35006 11.0401L7.14187 13.5102C7.13144 13.5315 7.12339 13.5539 7.11787 13.577L6.90121 14.4831L6.42096 14.339C6.36719 14.3229 6.31014 14.321 6.25545 14.3336L5.20526 14.576C5.19458 14.5785 5.18403 14.5815 5.17366 14.585L4.0589 14.965L2.81291 14.8125C2.74379 14.804 2.67378 14.8181 2.61332 14.8526L0.91687 15.822C0.90389 15.8295 0.89144 15.8378 0.87961 15.8469L0.287199 16.3047C0.231599 16.3476 0.191518 16.4076 0.17303 16.4753L0.0114638 17.0678C-0.0350931 17.2385 0.0643045 17.4149 0.23444 17.4635L0.988417 17.6789C1.05139 17.6969 1.11834 17.6953 1.1804 17.6744L3.55421 16.8742L4.25636 16.7489H7.86299C7.92234 16.7489 7.98054 16.7325 8.03121 16.7016L9.13525 16.0284C9.15173 16.0184 9.16728 16.0069 9.18171 15.9941L10.1497 15.1336L10.1511 15.1324L10.9755 14.4079L12.2143 15.8943L11.9074 16.5272C11.9005 16.5414 11.8947 16.5561 11.89 16.5711L11.4369 18.0102L10.8238 19.4497L10.821 19.4564L10.3363 20.6681C10.3211 20.7063 10.3132 20.747 10.3132 20.7881V21.3805C10.3132 21.5317 10.4181 21.6627 10.5656 21.6958L11.885 21.992C11.9083 21.9972 11.932 21.9999 11.9558 21.9999H13.2484C13.3736 21.9999 13.4876 21.9275 13.5408 21.8141C13.5941 21.7007 13.577 21.5668 13.497 21.4704L12.5834 20.3693L12.9152 19.7265L12.9162 19.7246L13.7752 18.0871L14.4736 16.8246C14.4804 16.8123 14.4863 16.7996 14.4915 16.7866L14.8415 15.898C14.8458 15.8873 14.8494 15.8763 14.8525 15.8652L15.1487 14.7881C15.1633 14.7351 15.1641 14.6792 15.151 14.6257L14.8548 13.414C14.8501 13.3949 14.8438 13.3764 14.8358 13.3585L13.835 11.126C13.8893 11.0678 13.9217 10.9899 13.9217 10.9057V8.52055L14.1241 5.66208L15.4004 4.93966C15.4841 4.89226 15.5424 4.80999 15.5593 4.71526L15.6548 4.18028L15.9995 4.11462L17.9899 3.76496C18.034 3.75722 18.076 3.7404 18.1132 3.71557L19.4669 2.8131L20.9805 2.09614C21.0205 2.07719 21.0562 2.05021 21.0854 2.01689L21.8393 1.15521C21.896 1.09051 21.9244 1.00592 21.9185 0.920162C21.9126 0.834401 21.8728 0.754534 21.8078 0.698232L21.4039 0.348171C21.311 0.267705 21.1806 0.246854 21.0673 0.294368L20.2325 0.644429C20.2172 0.650871 20.2023 0.658491 20.1881 0.667222L19.2158 1.26555H18.3918C18.3603 1.26555 18.329 1.27015 18.2989 1.27918L16.414 1.84467C16.4007 1.84865 16.3877 1.85349 16.375 1.85915L15.1152 2.42201L14.0839 2.83454L11.7408 3.10874V1.72338C11.7408 1.69547 11.7372 1.66767 11.7301 1.64069L11.4877 0.725148C11.4671 0.64713 11.418 0.579664 11.3501 0.536022L10.5961 0.0513219ZM9.13053 15.0782C9.14089 15.1011 9.15359 15.1222 9.16821 15.1414L8.77403 15.4917L7.77224 16.1026H4.22774C4.20971 16.1026 4.19171 16.1041 4.17393 16.1071V15.6076C4.18181 15.6056 4.18963 15.6033 4.19737 15.6006L5.36662 15.202L6.3173 14.9826L7.04309 15.2004C7.12822 15.2259 7.22011 15.2152 7.29714 15.1709C7.37418 15.1266 7.42954 15.0524 7.45021 14.966L7.586 14.3982L8.44155 14.2167L8.44219 14.2169C8.45617 14.2203 8.51672 14.2353 8.61688 14.3188C8.75273 14.432 8.93983 14.6566 9.13053 15.0782ZM3.52766 15.5511L2.84083 15.467L1.257 16.372L0.768035 16.7499L0.718962 16.9298L1.06927 17.0299L3.37055 16.2542C3.3857 16.2491 3.40121 16.2451 3.41696 16.2423L3.52766 16.2225V15.5511ZM5.3603 7.36174C4.73606 7.65149 4.29617 8.00808 3.95947 8.33903C3.79138 8.50424 3.64984 8.66209 3.51877 8.80827L3.47219 8.86017C3.33481 9.01304 3.19346 9.16829 3.05072 9.27744C2.81976 9.45406 2.43729 9.60483 2.09536 9.71851C1.82411 9.8087 1.54824 9.88498 1.33117 9.93887L1.2505 10.1988L2.13285 10.3685L3.11643 9.43289C3.14705 9.40377 3.18308 9.38093 3.22249 9.36568L4.02833 9.05374L5.15996 8.34318C5.18034 8.33038 5.20209 8.3199 5.22481 8.31193L6.11332 8.00017L5.3603 7.36174ZM15.2399 3.06821V3.61132C15.2636 3.60032 15.2889 3.5921 15.3154 3.58705L15.8809 3.47934L15.8854 3.47851L17.8112 3.14019L19.1281 2.2623C19.1411 2.25359 19.1548 2.24585 19.169 2.23913L20.6432 1.54081L21.1392 0.973974L21.1322 0.967932L20.5055 1.23074L19.4767 1.86389C19.4257 1.89523 19.3671 1.91182 19.3073 1.91182H18.4392L16.6196 2.45769L15.373 3.01468L15.3612 3.01968L15.2399 3.06821ZM14.5033 14.6977L14.3399 14.0292H13.5921L13.1018 14.3703L12.8064 14.7838L12.9486 15.7316C12.9582 15.796 12.9482 15.8619 12.9198 15.9205L12.4993 16.7878L12.0486 18.2193C12.0455 18.2293 12.0418 18.2392 12.0377 18.2489L11.4198 19.6997L10.9595 20.8503V21.1219L11.9917 21.3536H12.5603L11.9495 20.6175C11.8667 20.5177 11.8516 20.3781 11.911 20.2629L12.3419 19.4282L12.3429 19.4262L13.2046 17.7837L13.2059 17.7812L13.208 17.7773L13.8979 16.5302L14.2339 15.6772L14.5033 14.6977ZM7.83594 21.8923C8.90671 21.8923 9.77474 21.0243 9.77474 19.9535C9.77474 18.8827 8.90671 18.0147 7.83594 18.0147C6.76517 18.0147 5.89714 18.8827 5.89714 19.9535C5.89714 21.0243 6.76517 21.8923 7.83594 21.8923Z" fill="black"/>
</svg>
