<svg width="24" height="22" viewBox="0 0 24 22" fill="none" xmlns="http://www.w3.org/2000/svg">
<path fill-rule="evenodd" clip-rule="evenodd" d="M11.777 0.940122C10.8099 0.940122 9.90073 1.31674 9.21689 2.00058C9.03333 2.18414 8.73569 2.18414 8.55213 2.00058C8.36857 1.81697 8.36857 1.51933 8.55213 1.33577C9.41356 0.474386 10.5589 0 11.7771 0C12.9953 0 14.1405 0.474386 15.002 1.33577C15.1855 1.51938 15.1855 1.81702 15.002 2.00058C14.8209 2.18165 14.5182 2.18165 14.3372 2.00058C13.6533 1.31674 12.7441 0.940122 11.777 0.940122ZM13.2456 3.56237C13.3659 3.56237 13.4862 3.51649 13.578 3.42469C13.7615 3.24113 13.7615 2.94349 13.578 2.75988C12.585 1.76693 10.9693 1.76697 9.97636 2.75988C9.7928 2.94344 9.7928 3.24109 9.97636 3.42469C10.1599 3.6083 10.4576 3.60825 10.6412 3.42469C11.2675 2.79833 12.2868 2.79829 12.9132 3.42469C13.005 3.51649 13.1253 3.56237 13.2456 3.56237ZM8.60538 5.45302C9.58316 6.11114 11.1282 6.26 11.7785 6.25217C13.1511 6.41634 14.3718 5.78781 14.8105 5.45302C17.2361 3.40345 19.8012 4.08194 20.7806 4.67738C25.9045 8.25003 22.6844 12.4808 21.3212 13.515C20.2378 14.3369 18.3069 14.4227 17.4597 14.3624C17.7736 13.9512 17.96 13.4375 17.96 12.8803C17.96 11.5303 16.8656 10.4359 15.5156 10.4359C14.1656 10.4359 13.0711 11.5303 13.0711 12.8803C13.0711 13.437 13.2572 13.9502 13.5706 14.3611H9.98624C10.2996 13.9502 10.4856 13.437 10.4856 12.8803C10.4856 11.5303 9.39123 10.4359 8.0412 10.4359C6.69117 10.4359 5.59676 11.5303 5.59676 12.8803C5.59676 13.437 5.78283 13.9502 6.09617 14.3611H5.9729C4.60026 14.4551 3.33259 14.0712 2.87034 13.8675C-1.47794 11.5171 -0.349738 6.11114 2.70582 4.67738C5.54624 3.34457 7.14768 4.44908 8.34092 5.27206L8.34099 5.2721C8.43134 5.33442 8.51935 5.39512 8.60538 5.45302ZM9.73358 12.8803C9.73358 13.815 8.97591 14.5726 8.04128 14.5726C7.10664 14.5726 6.34897 13.815 6.34897 12.8803C6.34897 11.9457 7.10664 11.188 8.04128 11.188C8.97591 11.188 9.73358 11.9457 9.73358 12.8803ZM15.5155 14.5726C16.4502 14.5726 17.2078 13.815 17.2078 12.8803C17.2078 11.9457 16.4502 11.188 15.5155 11.188C14.5809 11.188 13.8232 11.9457 13.8232 12.8803C13.8232 13.815 14.5809 14.5726 15.5155 14.5726ZM17.2521 7.99143C17.6675 7.99143 18.0043 7.65468 18.0043 7.23929C18.0043 6.8239 17.6675 6.48715 17.2521 6.48715C16.8368 6.48715 16.5 6.8239 16.5 7.23929C16.5 7.65468 16.8368 7.99143 17.2521 7.99143ZM17.2521 8.74356C18.0829 8.74356 18.7564 8.07008 18.7564 7.23929C18.7564 6.4085 18.0829 5.73502 17.2521 5.73502C16.4214 5.73502 15.7479 6.4085 15.7479 7.23929C15.7479 8.07008 16.4214 8.74356 17.2521 8.74356ZM20.6837 9.9187C20.6837 10.3341 20.3469 10.6708 19.9316 10.6708C19.5162 10.6708 19.1794 10.3341 19.1794 9.9187C19.1794 9.5033 19.5162 9.16656 19.9316 9.16656C20.3469 9.16656 20.6837 9.5033 20.6837 9.9187ZM21.4358 9.9187C21.4358 10.7495 20.7623 11.423 19.9316 11.423C19.1008 11.423 18.4273 10.7495 18.4273 9.9187C18.4273 9.08791 19.1008 8.41443 19.9316 8.41443C20.7623 8.41443 21.4358 9.08791 21.4358 9.9187ZM10.5299 9.04912C10.5299 8.80248 10.7298 8.60254 10.9764 8.60254H12.4807C12.7273 8.60254 12.9273 8.80248 12.9273 9.04912C12.9273 9.29576 12.7273 9.4957 12.4807 9.4957H10.9764C10.7298 9.4957 10.5299 9.29576 10.5299 9.04912ZM4.37171 6.93369C4.37171 6.66109 4.5927 6.4401 4.8653 6.4401C5.1379 6.4401 5.35889 6.66109 5.35889 6.93369V7.80334H6.22849C6.50109 7.80334 6.72208 8.02432 6.72208 8.29693C6.72208 8.56953 6.50109 8.79051 6.22849 8.79051H5.35889V9.66018C5.35889 9.93279 5.1379 10.1538 4.8653 10.1538C4.5927 10.1538 4.37171 9.93279 4.37171 9.66018V8.79051H3.50199C3.22939 8.79051 3.0084 8.56953 3.0084 8.29692C3.0084 8.02432 3.22939 7.80334 3.50199 7.80334H4.37171V6.93369ZM12.1679 4.29973C12.0274 4.08506 11.7279 4.02968 11.516 4.17C11.3023 4.31148 11.2452 4.60899 11.3862 4.8215C11.5277 5.03463 11.8256 5.09395 12.0382 4.95171C12.251 4.80937 12.3098 4.51262 12.1679 4.29973ZM0.000591473 12.4382C0.020332 16.605 0.502572 22 2.34931 22C5.16982 22 6.34503 20.4487 7.94332 15.4188L7.91361 15.3981C3.49039 15.7962 1.10893 14.1403 0.000591473 12.4382ZM23.5964 12.4382C23.5767 16.605 23.0945 22.0002 21.2477 22.0002C18.4272 22.0002 17.252 20.4489 15.6537 15.419L15.6834 15.3983C20.1067 15.7963 22.4882 14.1403 23.5964 12.4382Z" fill="black"/>
</svg>
