<svg width="23" height="23" viewBox="0 0 23 23" fill="none" xmlns="http://www.w3.org/2000/svg">
<path fill-rule="evenodd" clip-rule="evenodd" d="M10.8249 1.30676C11.2119 0.260493 12.38 -0.266941 13.4207 0.134687L19.4866 2.47555C20.5214 2.87488 21.0336 4.04002 20.6282 5.07244L17.9916 11.7872H7.0014C7.02059 11.6418 7.05628 11.4957 7.10974 11.3512L10.8249 1.30676ZM3.49237 11.7872H6.11691C6.13734 11.6602 6.17045 11.533 6.21709 11.4069L7.18939 8.77816C6.60303 8.33575 6.2881 7.55476 6.53047 6.75975L6.94415 5.40283C7.16827 4.6677 8.08083 4.46916 8.59624 4.97456L9.93224 1.3625C10.0301 1.09803 10.1778 0.866709 10.3608 0.675166C10.3273 0.67918 10.2938 0.684051 10.2602 0.689796L3.8119 1.79276C2.72314 1.97899 1.9915 3.01257 2.17773 4.10133L3.49237 11.7872ZM11.8742 7.4105C11.6504 6.90556 11.8784 6.31485 12.3833 6.09112L14.1686 5.30007C14.6735 5.07633 15.2642 5.30429 15.488 5.80923L16.279 7.59449C16.5028 8.09943 16.2748 8.69013 15.7699 8.91387L13.9846 9.70492C13.4797 9.92865 12.889 9.7007 12.6652 9.19576L11.8742 7.4105ZM0 14.6238C0 13.5192 0.895431 12.6238 2 12.6238H20.0879C21.1924 12.6238 22.0879 13.5192 22.0879 14.6238V20.0502C22.0879 21.1548 21.1924 22.0502 20.0879 22.0502H2C0.895428 22.0502 0 21.1548 0 20.0502V14.6238ZM2.1753 17.3616C2.1753 17.0278 2.21723 16.7325 2.30107 16.4757C2.3884 16.219 2.50543 16.005 2.65216 15.8338C2.80238 15.6584 2.97705 15.5257 3.17618 15.4358C3.37879 15.346 3.59713 15.301 3.8312 15.301C4.06526 15.301 4.28185 15.346 4.48098 15.4358C4.6836 15.5257 4.86001 15.6584 5.01023 15.8338C5.16045 16.005 5.27748 16.219 5.36132 16.4757C5.44866 16.7325 5.49233 17.0278 5.49233 17.3616C5.49233 17.6954 5.45041 17.9928 5.36656 18.2538C5.28272 18.5106 5.16569 18.7267 5.01547 18.9022C4.86875 19.0734 4.69408 19.2039 4.49146 19.2938C4.28884 19.3836 4.06875 19.4286 3.8312 19.4286C3.59364 19.4286 3.37355 19.3836 3.17093 19.2938C2.96832 19.1996 2.79364 19.0648 2.64692 18.8893C2.50019 18.7139 2.38491 18.4978 2.30107 18.241C2.21723 17.9842 2.1753 17.6911 2.1753 17.3616ZM3.11853 17.3616C3.11853 17.751 3.18316 18.042 3.31242 18.2346C3.44168 18.4272 3.6146 18.5235 3.8312 18.5235C4.05128 18.5235 4.22595 18.4272 4.35521 18.2346C4.48447 18.042 4.5491 17.751 4.5491 17.3616C4.5491 16.9764 4.48447 16.6876 4.35521 16.495C4.22945 16.3024 4.05652 16.2061 3.83644 16.2061C3.61984 16.2061 3.44517 16.3024 3.31242 16.495C3.18316 16.6833 3.11853 16.9722 3.11853 17.3616ZM8.89385 19.1782C8.84494 19.2381 8.77332 19.2831 8.679 19.313C8.58817 19.3472 8.47813 19.3644 8.34887 19.3644C8.21961 19.3644 8.09734 19.3408 7.98206 19.2938C7.86678 19.2467 7.77245 19.1333 7.69909 18.9535L7.18032 17.6569C7.12791 17.5242 7.08075 17.4001 7.03883 17.2846C6.99691 17.1647 6.95149 17.0278 6.90259 16.8737L6.87115 16.8801C6.88512 17.1112 6.89211 17.3466 6.89211 17.5863C6.8956 17.8259 6.89735 18.0613 6.89735 18.2924V19.2873C6.85892 19.3002 6.79953 19.313 6.71918 19.3259C6.64232 19.3387 6.56547 19.3451 6.48861 19.3451C6.41176 19.3451 6.34364 19.3387 6.28425 19.3259C6.22486 19.313 6.17595 19.2873 6.13752 19.2488C6.09909 19.2103 6.0694 19.159 6.04844 19.0948C6.02748 19.0263 6.017 18.9386 6.017 18.8316V15.622C6.06591 15.5364 6.14102 15.4722 6.24233 15.4294C6.34364 15.3866 6.45193 15.3652 6.56722 15.3652C6.69647 15.3652 6.81874 15.3909 6.93403 15.4422C7.0528 15.4893 7.14713 15.6006 7.217 15.776L7.74101 17.0727C7.79341 17.2054 7.84058 17.3316 7.8825 17.4515C7.92442 17.567 7.96983 17.7018 8.01874 17.8559L8.04494 17.8494C8.03097 17.6184 8.02223 17.3873 8.01874 17.1562C8.01525 16.9251 8.0135 16.694 8.0135 16.4629V15.423C8.05193 15.4102 8.10957 15.3973 8.18643 15.3845C8.26678 15.3716 8.34538 15.3652 8.42223 15.3652C8.57595 15.3652 8.69298 15.3995 8.77332 15.4679C8.85367 15.5321 8.89385 15.6691 8.89385 15.8788V19.1782ZM9.70456 19.1718C9.7919 19.2788 9.91067 19.3323 10.0609 19.3323H11.4653C11.5631 19.3323 11.6417 19.298 11.7011 19.2296C11.7605 19.1568 11.7901 19.0348 11.7901 18.8637C11.7901 18.7781 11.7797 18.6968 11.7587 18.6197C11.7377 18.5384 11.715 18.4742 11.6906 18.4272H10.4906V15.8916C10.4906 15.7803 10.4801 15.6905 10.4591 15.622C10.4382 15.5535 10.4067 15.5 10.3648 15.4615C10.3229 15.423 10.2705 15.3973 10.2076 15.3845C10.1482 15.3674 10.0784 15.3588 9.99801 15.3588C9.92115 15.3588 9.8408 15.3674 9.75696 15.3845C9.67312 15.3973 9.61198 15.408 9.57356 15.4166V18.7353C9.57356 18.9193 9.61722 19.0648 9.70456 19.1718ZM13.1772 19.2873C13.1388 19.3002 13.0776 19.313 12.9938 19.3259C12.9134 19.3387 12.8331 19.3451 12.7527 19.3451C12.6724 19.3451 12.6008 19.3366 12.5379 19.3194C12.4785 19.3066 12.4278 19.2809 12.3859 19.2424C12.344 19.2039 12.3126 19.1504 12.2916 19.0819C12.2706 19.0135 12.2602 18.9236 12.2602 18.8123V15.423C12.2986 15.4144 12.3597 15.4037 12.4436 15.3909C12.5274 15.3738 12.6078 15.3652 12.6846 15.3652C12.765 15.3652 12.8348 15.3738 12.8942 15.3909C12.9571 15.4037 13.0095 15.4294 13.0514 15.4679C13.0933 15.5064 13.1248 15.5599 13.1458 15.6284C13.1667 15.6969 13.1772 15.7867 13.1772 15.898V19.2873ZM16.5188 19.313C16.6131 19.2831 16.6847 19.2381 16.7336 19.1782V15.8788C16.7336 15.6691 16.6935 15.5321 16.6131 15.4679C16.5328 15.3995 16.4157 15.3652 16.262 15.3652C16.1852 15.3652 16.1066 15.3716 16.0262 15.3845C15.9493 15.3973 15.8917 15.4102 15.8533 15.423V16.4629C15.8533 16.694 15.855 16.9251 15.8585 17.1562C15.862 17.3873 15.8707 17.6184 15.8847 17.8494L15.8585 17.8559C15.8096 17.7018 15.7642 17.567 15.7223 17.4515C15.6804 17.3316 15.6332 17.2054 15.5808 17.0727L15.0568 15.776C14.9869 15.6006 14.8926 15.4893 14.7738 15.4422C14.6585 15.3909 14.5363 15.3652 14.407 15.3652C14.2917 15.3652 14.1834 15.3866 14.0821 15.4294C13.9808 15.4722 13.9057 15.5364 13.8568 15.622V18.8316C13.8568 18.9386 13.8673 19.0263 13.8882 19.0948C13.9092 19.159 13.9389 19.2103 13.9773 19.2488C14.0157 19.2873 14.0646 19.313 14.124 19.3259C14.1834 19.3387 14.2515 19.3451 14.3284 19.3451C14.4052 19.3451 14.4821 19.3387 14.559 19.3259C14.6393 19.313 14.6987 19.3002 14.7371 19.2873V18.2924C14.7371 18.0613 14.7354 17.8259 14.7319 17.5863C14.7319 17.3466 14.7249 17.1112 14.7109 16.8801L14.7424 16.8737C14.7913 17.0278 14.8367 17.1647 14.8786 17.2846C14.9205 17.4001 14.9677 17.5242 15.0201 17.6569L15.5389 18.9535C15.6122 19.1333 15.7066 19.2467 15.8218 19.2938C15.9371 19.3408 16.0594 19.3644 16.1886 19.3644C16.3179 19.3644 16.4279 19.3472 16.5188 19.313ZM17.4133 16.02C17.4133 15.836 17.457 15.6905 17.5443 15.5835C17.6317 15.4765 17.7504 15.423 17.9007 15.423H19.6299C19.6544 15.4701 19.6753 15.5321 19.6928 15.6091C19.7138 15.6862 19.7242 15.7675 19.7242 15.8531C19.7242 16.0157 19.6945 16.1312 19.6352 16.1997C19.5793 16.2682 19.5042 16.3024 19.4098 16.3024H18.3042V16.8994H19.4832C19.5077 16.9465 19.5286 17.0085 19.5461 17.0856C19.567 17.1583 19.5775 17.2375 19.5775 17.3231C19.5775 17.4857 19.5496 17.6012 19.4937 17.6697C19.4378 17.7382 19.3627 17.7724 19.2684 17.7724H18.3042V18.4464H19.6509C19.6753 18.4935 19.6963 18.5555 19.7138 18.6326C19.7347 18.7096 19.7452 18.7909 19.7452 18.8765C19.7452 19.0391 19.7155 19.1568 19.6561 19.2296C19.6002 19.298 19.5251 19.3323 19.4308 19.3323H17.9007C17.7504 19.3323 17.6317 19.2788 17.5443 19.1718C17.457 19.0648 17.4133 18.9193 17.4133 18.7353V16.02Z" fill="black"/>
</svg>
