<svg width="19" height="22" viewBox="0 0 19 22" fill="none" xmlns="http://www.w3.org/2000/svg">
<path fill-rule="evenodd" clip-rule="evenodd" d="M15.1729 3.51165L16.163 4.40313C16.4143 4.62939 16.8157 4.46451 16.8354 4.12694L17.0514 0.426867C17.0664 0.168885 16.8384 -0.0364811 16.5834 0.00545962L12.9261 0.606988C12.5925 0.661866 12.4705 1.07832 12.7217 1.30458L13.641 2.13231L9.03792 7.07894C8.73441 7.40509 8.23077 7.44208 7.88287 7.16376L6.20881 5.82451C5.87007 5.55352 5.38175 5.58057 5.07501 5.88731L1.64589 9.31642C1.24344 9.71888 1.24344 10.3714 1.64589 10.7738C2.04835 11.1763 2.70086 11.1763 3.10331 10.7738L5.22798 8.64918C5.53472 8.34244 6.02304 8.3154 6.36178 8.58638L8.08881 9.96801C8.43671 10.2463 8.94035 10.2093 9.24386 9.88319L15.1729 3.51165ZM1.3442 15.0549C0.601818 15.0549 0 15.6567 0 16.3991V20.6557C0 21.3981 0.601818 21.9999 1.3442 21.9999H16.9817C17.7241 21.9999 18.3259 21.3981 18.3259 20.6557V16.3991C18.3259 15.6567 17.7241 15.0549 16.9817 15.0549H1.3442ZM7.22273 18.4599C7.22273 18.2223 7.25929 18.012 7.33241 17.8292C7.40858 17.6464 7.51065 17.4941 7.63862 17.3722C7.76964 17.2473 7.92198 17.1528 8.09565 17.0888C8.27237 17.0248 8.46279 16.9929 8.66693 16.9929C8.87107 16.9929 9.05998 17.0248 9.23365 17.0888C9.41036 17.1528 9.56423 17.2473 9.69524 17.3722C9.82626 17.4941 9.92833 17.6464 10.0015 17.8292C10.0776 18.012 10.1157 18.2223 10.1157 18.4599C10.1157 18.6976 10.0791 18.9093 10.006 19.0952C9.9329 19.278 9.83083 19.4319 9.69982 19.5568C9.57185 19.6786 9.41951 19.7716 9.24279 19.8356C9.06607 19.8995 8.87412 19.9315 8.66693 19.9315C8.45975 19.9315 8.2678 19.8995 8.09108 19.8356C7.91436 19.7685 7.76202 19.6726 7.63405 19.5476C7.50608 19.4227 7.40554 19.2688 7.33241 19.086C7.25929 18.9032 7.22273 18.6945 7.22273 18.4599ZM8.04538 18.4599C8.04538 18.7372 8.10174 18.9444 8.21448 19.0815C8.32721 19.2186 8.47803 19.2871 8.66693 19.2871C8.85888 19.2871 9.01123 19.2186 9.12396 19.0815C9.23669 18.9444 9.29306 18.7372 9.29306 18.4599C9.29306 18.1857 9.23669 17.98 9.12396 17.8429C9.01427 17.7058 8.86346 17.6373 8.6715 17.6373C8.4826 17.6373 8.33026 17.7058 8.21448 17.8429C8.10174 17.977 8.04538 18.1826 8.04538 18.4599ZM3.2849 18.2771C3.21787 18.335 3.12037 18.3639 2.9924 18.3639H2.75018V17.6555C2.78369 17.6494 2.81569 17.6464 2.84615 17.6464C2.87967 17.6434 2.9208 17.6418 2.96955 17.6418C3.10666 17.6418 3.21025 17.6738 3.28033 17.7378C3.35345 17.7987 3.39002 17.8871 3.39002 18.0029C3.39002 18.1248 3.35498 18.2162 3.2849 18.2771ZM2.59479 19.8584C2.66791 19.8493 2.72123 19.8401 2.75475 19.831V18.9901H3.07924C3.2651 18.9901 3.4281 18.9672 3.56826 18.9215C3.71146 18.8728 3.82876 18.8057 3.92017 18.7204C4.01462 18.6321 4.0847 18.5285 4.1304 18.4096C4.17915 18.2878 4.20353 18.1522 4.20353 18.0029C4.20353 17.6951 4.09232 17.4514 3.8699 17.2716C3.64748 17.0919 3.32603 17.002 2.90557 17.002C2.77151 17.002 2.63744 17.0111 2.50338 17.0294C2.37237 17.0446 2.25506 17.0705 2.15147 17.1071C2.09053 17.1284 2.04179 17.1574 2.00522 17.1939C1.97171 17.2275 1.95495 17.2762 1.95495 17.3402V19.4928C1.95495 19.572 1.96409 19.636 1.98237 19.6847C2.00065 19.7335 2.02807 19.7716 2.06464 19.799C2.1012 19.8264 2.14538 19.8447 2.19717 19.8538C2.25202 19.866 2.31448 19.8721 2.38456 19.8721C2.45463 19.8721 2.52471 19.8676 2.59479 19.8584ZM5.40576 19.831V18.9535H5.64798L6.03189 19.5705C6.05931 19.6162 6.08825 19.6588 6.11872 19.6985C6.14919 19.7381 6.1827 19.7716 6.21927 19.799C6.25583 19.8264 6.29848 19.8477 6.34723 19.863C6.39598 19.8782 6.45387 19.8858 6.5209 19.8858C6.62145 19.8858 6.71133 19.8584 6.79055 19.8036C6.87282 19.7457 6.92918 19.6634 6.95965 19.5568C6.89871 19.4501 6.81493 19.3313 6.70829 19.2003C6.60165 19.0693 6.49348 18.9291 6.3838 18.7798C6.51786 18.7067 6.63364 18.6031 6.73114 18.469C6.82864 18.335 6.87739 18.1735 6.87739 17.9846C6.87739 17.683 6.77075 17.4438 6.55747 17.2671C6.34419 17.0903 6.02732 17.002 5.60685 17.002C5.45146 17.002 5.30521 17.0111 5.1681 17.0294C5.03099 17.0446 4.91064 17.0705 4.80705 17.1071C4.74611 17.1284 4.69736 17.1574 4.6608 17.1939C4.62729 17.2275 4.61053 17.2762 4.61053 17.3402V19.4928C4.61053 19.572 4.61967 19.636 4.63795 19.6847C4.65623 19.7335 4.68213 19.7716 4.71565 19.799C4.75221 19.8264 4.79639 19.8447 4.84818 19.8538C4.90303 19.866 4.96549 19.8721 5.03556 19.8721C5.10564 19.8721 5.17572 19.8676 5.2458 19.8584C5.31892 19.8493 5.37224 19.8401 5.40576 19.831ZM5.9679 18.2588C5.90087 18.3167 5.80946 18.3456 5.69368 18.3456H5.40119V17.6601C5.4347 17.654 5.46517 17.6494 5.49259 17.6464C5.52001 17.6434 5.55658 17.6418 5.60228 17.6418C5.76376 17.6418 5.88107 17.6723 5.95419 17.7332C6.03036 17.7911 6.06845 17.878 6.06845 17.9937C6.06845 18.1095 6.03493 18.1979 5.9679 18.2588ZM12.5751 17.2168C12.5599 17.1589 12.5416 17.1132 12.5202 17.0797H10.9983C10.8673 17.0797 10.7637 17.1178 10.6876 17.1939C10.6114 17.2701 10.5733 17.3737 10.5733 17.5047V19.4928C10.5733 19.572 10.5824 19.636 10.6007 19.6847C10.619 19.7335 10.6464 19.7716 10.683 19.799C10.7196 19.8264 10.7637 19.8447 10.8155 19.8538C10.8704 19.866 10.9328 19.8721 11.0029 19.8721C11.073 19.8721 11.1431 19.8676 11.2131 19.8584C11.2863 19.8493 11.3396 19.8401 11.3731 19.831V18.8667H12.1729C12.2582 18.8667 12.3252 18.8423 12.374 18.7935C12.4258 18.7417 12.4517 18.658 12.4517 18.5422C12.4517 18.4812 12.4426 18.4233 12.4243 18.3685C12.409 18.3137 12.3892 18.2695 12.3649 18.236H11.364V17.7195H12.3237C12.409 17.7195 12.4761 17.6951 12.5248 17.6464C12.5766 17.5946 12.6025 17.5093 12.6025 17.3905C12.6025 17.3295 12.5934 17.2716 12.5751 17.2168ZM13.8011 19.831C13.7676 19.8401 13.7142 19.8493 13.6411 19.8584C13.571 19.8676 13.5009 19.8721 13.4309 19.8721C13.3608 19.8721 13.2983 19.866 13.2435 19.8538C13.1917 19.8447 13.1475 19.8264 13.111 19.799C13.0744 19.7716 13.047 19.7335 13.0287 19.6847C13.0104 19.636 13.0013 19.572 13.0013 19.4928V17.0797C13.0348 17.0736 13.0881 17.066 13.1612 17.0568C13.2344 17.0446 13.3044 17.0386 13.3715 17.0386C13.4415 17.0386 13.5025 17.0446 13.5543 17.0568C13.6091 17.066 13.6548 17.0843 13.6914 17.1117C13.7279 17.1391 13.7554 17.1772 13.7736 17.2259C13.7919 17.2747 13.8011 17.3387 13.8011 17.4179V19.831ZM14.179 17.3996C14.179 17.4636 14.1881 17.5245 14.2064 17.5824C14.2247 17.6403 14.2445 17.686 14.2658 17.7195H14.9513V19.4928C14.9513 19.572 14.9605 19.636 14.9788 19.6847C14.997 19.7335 15.0245 19.7716 15.061 19.799C15.0976 19.8264 15.1418 19.8447 15.1936 19.8538C15.2484 19.866 15.3109 19.8721 15.381 19.8721C15.451 19.8721 15.5211 19.8676 15.5912 19.8584C15.6643 19.8493 15.7176 19.8401 15.7511 19.831V17.7195H16.2584C16.3438 17.7195 16.4123 17.6936 16.4641 17.6418C16.5189 17.59 16.5464 17.5047 16.5464 17.3859C16.5464 17.3219 16.5372 17.261 16.5189 17.2031C16.5007 17.1452 16.4809 17.0995 16.4595 17.066H14.4669C14.3816 17.066 14.3115 17.0919 14.2567 17.1437C14.2049 17.1955 14.179 17.2808 14.179 17.3996ZM7.34855 14.6068V10.5407L8.08875 11.1329C8.43665 11.4112 8.94029 11.3742 9.2438 11.048L10.9779 9.18455V14.6068H7.34855ZM12.7699 14.6069V7.25881L14.563 5.3319H15.9512C16.1986 5.3319 16.3992 5.5325 16.3992 5.77996V14.6069H12.7699ZM2.37501 12.3664C2.12755 12.3664 1.92694 12.567 1.92694 12.8144V14.6067H5.55628V12.8144C5.55628 12.567 5.35567 12.3664 5.10821 12.3664H2.37501Z" fill="black"/>
</svg>
