<svg width="27" height="23" viewBox="0 0 27 23" fill="none" xmlns="http://www.w3.org/2000/svg">
<path fill-rule="evenodd" clip-rule="evenodd" d="M18.1449 0.313825L14.9784 2.74963V2.79722H5.08025C2.2745 2.79722 0 5.07173 0 7.87747C0 10.4463 1.90663 12.5698 4.38197 12.9101H3.57776L2.02676 20.0743C1.79407 21.1491 2.613 22.1643 3.71271 22.1643C4.52475 22.1643 5.22683 21.5979 5.39866 20.8043L6.25053 16.8695H7.48954C8.12182 16.8695 8.63438 16.3569 8.63438 15.7246C8.63438 15.0923 8.12182 14.5798 7.48954 14.5798H6.74623L7.0974 12.9577H14.9784V12.9578L18.1323 15.4379C19.1164 16.2117 20.5595 15.5106 20.5595 14.2587V1.50276C20.5595 0.258252 19.1314 -0.444966 18.1449 0.313825ZM5.48568 3.6082H6.29661V12.1945H5.48568V3.6082ZM21.1796 10.2665C22.247 10.0091 23.0401 9.04789 23.0401 7.90143C23.0401 6.75498 22.247 5.79374 21.1796 5.53635V10.2665ZM24.8698 7.24124H26.2422C26.4579 7.24124 26.6328 7.41612 26.6328 7.63184C26.6328 7.84756 26.4579 8.02245 26.2422 8.02245H24.8698C24.6541 8.02245 24.4792 7.84756 24.4792 7.63184C24.4792 7.41612 24.6541 7.24124 24.8698 7.24124ZM24.3846 5.97996C24.4846 5.97996 24.5846 5.94184 24.6608 5.86554L25.6312 4.89512C25.7838 4.74257 25.7838 4.49524 25.6312 4.34275C25.4787 4.19021 25.2314 4.19021 25.0789 4.34275L24.1084 5.31317C23.9559 5.46571 23.9559 5.71305 24.1084 5.86554C24.1847 5.94184 24.2846 5.97996 24.3846 5.97996ZM24.1084 9.39805C24.2609 9.24551 24.5083 9.24551 24.6608 9.39805L25.6312 10.3685C25.7838 10.521 25.7838 10.7683 25.6312 10.9208C25.555 10.9971 25.455 11.0353 25.355 11.0353C25.2551 11.0353 25.1551 10.9971 25.0789 10.9208L24.1084 9.95042C23.9559 9.79793 23.9559 9.5506 24.1084 9.39805Z" fill="black"/>
</svg>
