<svg width="36" height="22" viewBox="0 0 36 22" fill="none" xmlns="http://www.w3.org/2000/svg">
<path fill-rule="evenodd" clip-rule="evenodd" d="M31.3577 17.4495L35.5374 5.95748C35.5767 5.84951 35.5717 5.73264 35.523 5.62844C35.4744 5.52423 35.3883 5.44527 35.2803 5.40601L24.4342 1.4582C24.2113 1.37721 23.9638 1.49249 23.8826 1.71544L22.7625 4.79305C22.8739 4.73185 22.9878 4.6741 23.1039 4.61994L23.1044 4.61971C24.4943 3.9718 26.0699 3.90273 27.5115 4.42736L27.5115 4.42737C28.1142 4.64669 28.6687 4.96078 29.1573 5.35414C29.7845 5.36692 30.4112 5.48273 31.0137 5.70208L21.7604 7.54622L18.1467 17.4746C18.1074 17.5826 18.1125 17.6995 18.1611 17.8036C18.2097 17.9078 18.2959 17.9869 18.404 18.0262L29.25 21.9739C29.3579 22.013 29.4747 22.0081 29.5789 21.9595C29.6831 21.9109 29.7622 21.8247 29.8015 21.7166L31.332 17.5117C31.3397 17.4904 31.3483 17.4697 31.3577 17.4495ZM11.8543 8.6873L13.1958 10.8761L13.8636 7.08934L11.8543 8.6873ZM15.0825 0.1764L7.11911 1.58057C6.88553 1.62171 6.72881 1.84534 6.77018 2.07906L9.68234 18.5948C9.72356 18.8285 9.94711 18.9849 10.1809 18.9439L12.8904 18.4661C12.7449 18.3508 12.6152 18.2137 12.5057 18.0574C12.2089 17.6335 12.095 17.1194 12.1848 16.6098L12.801 13.1157L10.2211 8.90634C10.0222 8.58174 10.0966 8.15987 10.3945 7.92291L14.2584 4.84988L15.0825 0.1764ZM7.15618 12.9467L6.67984 10.2451C6.6127 10.3259 6.52824 10.3942 6.42742 10.4426C6.23943 10.5329 6.07842 10.6638 5.94875 10.8317C5.58384 11.3043 5.57834 11.9419 5.93496 12.4183C6.23092 12.8135 6.69784 13.0026 7.15618 12.9467ZM5.98438 21.102C6.08859 21.1506 6.20545 21.1557 6.31342 21.1164L9.02908 20.128C8.60593 19.8444 8.29355 19.3967 8.19831 18.8565L7.41831 14.433C7.27711 14.4547 7.13539 14.4668 6.99419 14.4668C6.12913 14.4669 5.28584 14.0656 4.72873 13.3215C3.96132 12.2965 3.97232 10.9259 4.756 9.91086C4.88959 9.73787 5.03938 9.58318 5.20424 9.44771C5.19867 9.42118 5.19339 9.39459 5.18857 9.36791C5.0152 8.41402 5.36368 7.42788 6.06855 6.77854L5.35011 2.70422L0.2831 4.54849C0.060148 4.62964 -0.0552082 4.87708 0.0260159 5.1001L5.76188 20.8592C5.80122 20.9672 5.88025 21.0534 5.98438 21.102ZM17.9306 10.4427C17.8723 10.7734 17.9463 11.107 18.1389 11.382C18.2628 11.5589 18.4263 11.6957 18.6128 11.7876L19.7227 8.73824L18.4476 9.6311C18.1725 9.82369 17.9889 10.1119 17.9306 10.4427ZM17.5834 8.39661L20.6214 6.26942L22.4663 1.19999C22.495 1.12155 22.5286 1.04636 22.5659 0.974024L17.0795 0.00656765C16.8456 -0.0345719 16.6221 0.121848 16.5809 0.35565L13.6687 16.8714C13.6488 16.9846 13.6741 17.0988 13.74 17.1929C13.806 17.2871 13.9046 17.35 14.0179 17.37L16.6244 17.8296C16.5927 17.5387 16.6275 17.2423 16.7305 16.9592L18.0953 13.2096C17.6222 13.0112 17.2098 12.6824 16.9045 12.2463C16.481 11.6416 16.3184 10.908 16.4466 10.1809C16.5748 9.45373 16.9786 8.82006 17.5834 8.39661ZM24.3588 9.41399L24.3588 9.41407L24.3588 9.41412C24.244 9.72962 24.2589 10.0709 24.4007 10.3751L24.4007 10.3751L24.4007 10.3752L24.4008 10.3753L24.4008 10.3753L24.6647 10.9413L24.6648 10.9414L24.778 11.1842L24.9109 11.4693L25.4148 12.5499L25.4457 12.6162L25.4508 12.627L25.7625 13.2955L26.0458 13.9032L27.3226 13.3078L27.3329 13.303L27.3989 13.2722L28.4789 12.7686L28.7647 12.6353L29.0064 12.5226L29.0071 12.5222L29.5733 12.2582L29.5736 12.2581L29.5736 12.2581L29.5737 12.258L29.5737 12.258C29.8781 12.1161 30.109 11.8642 30.2238 11.5486L30.2238 11.5486C30.3386 11.233 30.3237 10.8917 30.1817 10.5874L30.1817 10.5874C30.0353 10.2733 29.7747 10.048 29.4722 9.93793L29.4719 9.93784C29.1867 9.83408 28.8643 9.83267 28.5651 9.95561C28.5472 9.96299 28.5293 9.97083 28.5115 9.97912L28.5111 9.97932L27.9448 10.2433C27.8593 10.2831 27.7702 10.3055 27.6814 10.312C27.6211 10.3164 27.5609 10.3134 27.5022 10.3036C27.4112 10.2883 27.3236 10.2564 27.244 10.2096C27.1926 10.1794 27.1446 10.143 27.1012 10.1009C27.0373 10.0388 26.9834 9.96427 26.9435 9.87873L26.6796 9.31271L26.6796 9.31265L26.6795 9.31244C26.6712 9.29459 26.6625 9.27703 26.6534 9.25977C26.5033 8.97319 26.2553 8.76699 25.97 8.66318C25.8325 8.61315 25.6863 8.58691 25.5383 8.58691C25.3606 8.58691 25.1803 8.62465 25.0089 8.70459L25.0089 8.7046L25.0087 8.70471C24.7044 8.84661 24.4736 9.09852 24.3588 9.41399ZM24.3723 7.33863C24.7437 7.16553 25.1403 7.07842 25.5383 7.07837C25.8572 7.07834 26.177 7.13419 26.4856 7.24648C26.6243 7.29697 26.7574 7.35764 26.8841 7.42777L26.8974 7.43519C27.1511 7.57741 27.3788 7.75767 27.5739 7.96989L27.5749 7.97088C27.7369 8.14726 27.8764 8.3457 27.9896 8.56272C28.2163 8.46904 28.4512 8.40664 28.6891 8.37571L28.6895 8.37566C28.9752 8.33856 29.2653 8.34687 29.5509 8.40096L29.5659 8.40385C29.7081 8.43159 29.8491 8.47069 29.9878 8.5212C30.6815 8.77368 31.2353 9.28117 31.5474 9.95026L31.5475 9.95039L31.5476 9.95076C31.8595 10.6197 31.8923 11.3701 31.6399 12.0636L31.6398 12.0639L31.6398 12.064C31.3872 12.7578 30.8797 13.3117 30.2105 13.6238L30.2105 13.6238L30.2103 13.6239L26.6827 15.2689L26.1492 15.5176C26.0241 15.5759 25.8923 15.6036 25.7625 15.6036C25.4165 15.6036 25.0845 15.4073 24.9288 15.0736L24.68 14.5401L23.0351 11.0124L23.035 11.0122L23.035 11.0122C22.7229 10.3431 22.6901 9.59252 22.9426 8.89876L22.9427 8.89865L22.9427 8.89862C23.1952 8.20482 23.7027 7.651 24.3717 7.33889L24.3719 7.33878L24.3723 7.33863Z" fill="black"/>
</svg>
