<?xml version="1.0" encoding="utf-8"?>
<!-- Generator: Adobe Illustrator 22.1.0, SVG Export Plug-In . SVG Version: 6.00 Build 0)  -->
<svg version="1.1" id="Layer_1" xmlns="http://www.w3.org/2000/svg" xmlns:xlink="http://www.w3.org/1999/xlink" x="0px" y="0px"
	 width="412.5px" height="210.5px" viewBox="0 0 412.5 210.5" style="enable-background:new 0 0 412.5 210.5;" xml:space="preserve"
	>
<style type="text/css">
	.st0{fill:#FFB700;}
	.st1{fill:#4F5461;}
	.st2{fill:#3FE0E0;}
	.st3{fill:#2E323C;}
</style>
<title>LOGO_FIVE88</title>
<path class="st0" d="M12.6,5.3h253.5c7,0,12.6,5.7,12.6,12.6v174.6c0,7-5.7,12.6-12.6,12.6H12.6c-7,0-12.6-5.7-12.6-12.6V17.9
	C0,11,5.7,5.3,12.6,5.3z"/>
<path class="st1" d="M31.2,0.1l235.7,24.5c6.5,0.7,11.2,6.5,10.5,13l-16.9,162.4c-0.7,6.5-6.5,11.2-13,10.5L11.9,185.9
	c-6.5-0.7-11.2-6.5-10.5-13L18.3,10.6C19,4.1,24.8-0.6,31.2,0.1z"/>
<path class="st2" d="M83.5,95.3l-0.8,16.1H59.2L56,171.7H38.1l7-132.9h44.4l-0.8,16.1H62.2l-2.3,40.4L83.5,95.3z"/>
<path class="st2" d="M92.6,171.7l7-132.9h17.8l-7,132.9H92.6z"/>
<path class="st2" d="M190,38.8l-28.6,132.9h-21.2L125.5,38.8h17.8l9.1,101.5l19.7-101.4L190,38.8z"/>
<path class="st2" d="M189.2,171.7l7-132.9h44.4l-0.8,16.1h-26.6l-2.3,40.4h23.5l-0.8,16.1h-23.5l-2.5,44.2h26.6l-0.8,16.1
	L189.2,171.7z"/>
<path class="st0" d="M299,103.9c-8-1.9-11.8-7.2-11.4-16.2l1.5-26.4c0.7-15.2,7.9-22.9,21.5-22.9h10.3c13.6,0,20.1,7.6,19.4,22.9
	l-1.5,26.6c-0.4,8.9-4.3,14.3-12,16.2c8.2,2.5,12.1,7.8,11.6,16l-1.5,29.2c-0.7,15.1-7.9,22.7-21.5,22.7h-12.9
	c-13.6,0-20.1-7.6-19.4-22.7l1.4-29.4C285.2,111.8,289.9,106.4,299,103.9z M307.5,155.8h4.5c5.1,0,7.8-3.2,8.1-9.7l1.3-24.9
	c0.4-6.3-2.7-9.5-9.2-9.5c-6.7,0.1-10.2,3.2-10.5,9.3l-1.3,25.1C300.1,152.6,302.4,155.8,307.5,155.8L307.5,155.8z M305.9,64.5
	l-1.1,22.1c-0.4,6.4,2,9.7,7.1,9.7h2c5.1-0.9,7.8-4,8.1-9.5l1.1-22.3c0.4-6.4-2-9.7-7.1-9.7h-2C308.9,54.9,306.2,58.1,305.9,64.5
	L305.9,64.5z"/>
<path class="st0" d="M315.5,183.2h-12.9c-9.6,0-17.3-2.9-22.7-8.6c-5.8-6.1-8.4-14.8-7.9-25.9l1.5-29.4c0.2-6,2.4-11.8,6.2-16.5
	c-2.5-4.8-3.7-10.2-3.4-15.6l1.5-26.5c1-21.3,13-33.5,32.8-33.5h10.3c9.6,0,17.2,2.9,22.6,8.6c5.8,6.1,8.5,14.9,8,26.1l-1.5,26.7
	c-0.1,5.5-1.7,10.8-4.5,15.5c3.2,5,4.6,10.8,4.1,16.7l-1.4,29.1C347.2,171.1,335.3,183.2,315.5,183.2z"/>
<path class="st0" d="M359.8,103.9c-8-1.9-11.8-7.2-11.4-16.2l1.5-26.4c0.7-15.2,7.9-22.9,21.5-22.9h10.3c13.6,0,20.1,7.6,19.4,22.9
	l-1.4,26.6c-0.4,8.9-4.4,14.3-12,16.2c8.2,2.5,12.1,7.8,11.6,16l-1.4,29.2c-0.7,15.1-7.9,22.7-21.5,22.7h-12.8
	c-13.6,0-20.1-7.6-19.4-22.7l1.4-29.4C346,111.8,350.8,106.4,359.8,103.9z M368.3,155.8h4.5c5.1,0,7.8-3.2,8.2-9.7l1.3-24.9
	c0.4-6.3-2.7-9.5-9.2-9.5c-6.6,0.1-10.1,3.2-10.5,9.3l-1.3,25.1C360.9,152.6,363.3,155.8,368.3,155.8L368.3,155.8z M366.7,64.6
	l-1,22.1c-0.4,6.4,2,9.7,7.1,9.7h2c5.1-0.9,7.8-4,8.2-9.5l1.1-22.3c0.4-6.4-2-9.7-7.1-9.7h-2C369.8,54.9,367.1,58.1,366.7,64.6z"/>
<path class="st0" d="M376.3,183.2h-12.8c-9.6,0-17.3-2.9-22.7-8.6c-5.8-6.1-8.5-14.8-7.9-25.9l1.4-29.4c0.2-6,2.4-11.8,6.2-16.5
	c-2.5-4.8-3.7-10.2-3.4-15.6l1.5-26.5c1-21.3,13-33.5,32.8-33.5h10.3c9.6,0,17.2,2.9,22.7,8.6c5.8,6.1,8.5,14.9,8,26.1L411,88.6
	c-0.1,5.5-1.7,10.8-4.5,15.5c3.2,5,4.7,10.8,4.2,16.7l-1.4,29.1C408.1,171.1,396.1,183.2,376.3,183.2z"/>
<path class="st3" d="M299,103.9c-8-1.9-11.8-7.2-11.4-16.2l1.5-26.4c0.7-15.2,7.9-22.9,21.5-22.9h10.3c13.6,0,20.1,7.6,19.4,22.9
	l-1.5,26.6c-0.4,8.9-4.3,14.3-12,16.2c8.2,2.5,12.1,7.8,11.6,16l-1.5,29.2c-0.7,15.1-7.9,22.7-21.5,22.7h-12.9
	c-13.6,0-20.1-7.6-19.4-22.7l1.4-29.4C285.2,111.8,289.9,106.4,299,103.9z M307.5,155.8h4.5c5.1,0,7.8-3.2,8.1-9.7l1.3-24.9
	c0.4-6.3-2.7-9.5-9.2-9.5c-6.7,0.1-10.2,3.2-10.5,9.3l-1.3,25.1C300.1,152.6,302.4,155.8,307.5,155.8L307.5,155.8z M305.9,64.5
	l-1.1,22.1c-0.4,6.4,2,9.7,7.1,9.7h2c5.1-0.9,7.8-4,8.1-9.5l1.1-22.3c0.4-6.4-2-9.7-7.1-9.7h-2C308.9,54.9,306.2,58.1,305.9,64.5
	L305.9,64.5z"/>
<path class="st1" d="M359.8,103.9c-8-1.9-11.8-7.2-11.4-16.2l1.5-26.4c0.7-15.2,7.9-22.9,21.5-22.9h10.3c13.6,0,20.1,7.6,19.4,22.9
	l-1.4,26.6c-0.4,8.9-4.4,14.3-12,16.2c8.2,2.5,12.1,7.8,11.6,16l-1.4,29.2c-0.7,15.1-7.9,22.7-21.5,22.7h-12.8
	c-13.6,0-20.1-7.6-19.4-22.7l1.4-29.4C346,111.8,350.8,106.4,359.8,103.9z M368.3,155.8h4.5c5.1,0,7.8-3.2,8.2-9.7l1.3-24.9
	c0.4-6.3-2.7-9.5-9.2-9.5c-6.6,0.1-10.1,3.2-10.5,9.3l-1.3,25.1C360.9,152.6,363.3,155.8,368.3,155.8L368.3,155.8z M366.7,64.6
	l-1,22.1c-0.4,6.4,2,9.7,7.1,9.7h2c5.1-0.9,7.8-4,8.2-9.5l1.1-22.3c0.4-6.4-2-9.7-7.1-9.7h-2C369.8,54.9,367.1,58.1,366.7,64.6z"/>
<rect x="273.8" y="99.9" class="st0" width="9.4" height="9.4"/>
</svg>
